<svg width="355" height="327" viewBox="0 0 355 327" fill="none" xmlns="http://www.w3.org/2000/svg">
<path opacity="0.19" d="M308.706 35.6889C314.066 35.6889 318.411 31.3527 318.411 26.0036C318.411 20.6546 314.066 16.3184 308.706 16.3184C303.345 16.3184 299 20.6546 299 26.0036C299 31.3527 303.345 35.6889 308.706 35.6889Z" fill="url(#paint0_linear_4943_24430)"/>
<path opacity="0.51" d="M38.3853 60.0621C41.9118 60.0621 44.7706 57.2094 44.7706 53.6903C44.7706 50.1712 41.9118 47.3184 38.3853 47.3184C34.8588 47.3184 32 50.1712 32 53.6903C32 57.2094 34.8588 60.0621 38.3853 60.0621Z" fill="url(#paint1_linear_4943_24430)"/>
<path opacity="0.53" d="M51.342 253.984C53.74 253.984 55.684 252.044 55.684 249.651C55.684 247.258 53.74 245.318 51.342 245.318C48.944 245.318 47 247.258 47 249.651C47 252.044 48.944 253.984 51.342 253.984Z" fill="url(#paint2_linear_4943_24430)"/>
<path opacity="0.6" d="M314.087 53.4744C316.344 53.4744 318.173 51.6486 318.173 49.3964C318.173 47.1441 316.344 45.3184 314.087 45.3184C311.83 45.3184 310 47.1441 310 49.3964C310 51.6486 311.83 53.4744 314.087 53.4744Z" fill="url(#paint3_linear_4943_24430)"/>
<path opacity="0.1" d="M186.5 297.318C268.514 297.318 335 230.833 335 148.818C335 66.8041 268.514 0.318359 186.5 0.318359C104.486 0.318359 38 66.8041 38 148.818C38 230.833 104.486 297.318 186.5 297.318Z" fill="#9DA8BA"/>
<g filter="url(#filter0_d_4943_24430)">
<path d="M163.718 98.1994L160.398 89.0238C159.632 86.7299 157.333 85.2007 155.034 85.2007H96.8002C91.9474 85.2007 88.1162 89.0238 88.1162 93.8665V223.853V202.444H286.06V110.688C286.06 105.846 282.229 102.022 277.376 102.022H169.082C166.783 102.022 164.484 100.493 163.718 98.1994Z" fill="#B6C2D2"/>
</g>
<g filter="url(#filter1_d_4943_24430)">
<path d="M138.802 78.234L178.391 147.05C179.668 149.344 178.902 152.403 176.603 153.677L109.175 191.399C106.876 192.673 103.811 191.909 102.534 189.615L52.7287 100.408C51.1962 98.1144 52.2179 95.0558 54.5166 93.7815L103.556 66.5098L138.802 78.234Z" fill="white"/>
</g>
<path opacity="0.65" d="M103.044 85.6245L70.6069 103.721C69.8407 104.23 68.819 103.976 68.5636 103.211C68.0528 102.446 68.3082 101.427 69.0744 101.172L101.512 83.0757C102.278 82.566 103.3 82.8209 103.555 83.5855C104.066 84.3501 103.81 85.3696 103.044 85.6245Z" fill="#F68F57"/>
<path d="M87.4653 104.739L74.9502 111.621C74.1839 112.131 73.1623 111.876 72.9069 111.111C72.3961 110.347 72.6515 109.327 73.4177 109.072L85.6775 102.19C86.4437 101.681 87.4653 101.936 87.7208 102.7C88.487 103.21 88.2316 104.23 87.4653 104.739Z" fill="#E6EDF5"/>
<path d="M103.554 66.5078L114.282 85.6235C115.814 88.1722 119.39 89.1917 121.944 87.6625L139.057 78.2321" fill="#D8E2EE"/>
<path d="M142.634 120.287C140.591 115.954 137.782 111.112 134.206 107.543C132.418 105.759 129.864 104.485 127.054 104.485C124.245 104.485 121.691 105.504 118.881 106.779C114.028 108.818 109.431 111.112 105.089 113.915C101.002 116.209 96.4049 118.758 93.3399 122.581C89.2534 127.933 91.5521 133.541 94.3616 139.148C96.4049 143.481 99.2144 148.323 102.79 151.892C105.6 154.695 109.431 155.715 113.262 154.441C118.115 153.166 127.31 148.069 131.652 145.52C135.483 143.226 139.825 140.932 142.634 137.619C147.998 132.011 145.955 126.404 142.634 120.287ZM109.686 126.149C108.92 124.62 109.431 123.601 111.219 123.855C116.072 124.11 120.924 124.11 125.522 124.365C127.31 124.365 127.821 125.385 127.054 126.914C124.756 130.992 122.457 135.07 119.903 139.403C118.881 140.932 117.859 140.932 117.093 139.658C116.838 138.893 110.453 127.424 109.686 126.149Z" fill="#B6C2D2"/>
<g filter="url(#filter2_d_4943_24430)">
<path d="M318.103 122.07L273.151 180.181C271.618 182.22 268.809 182.475 266.765 180.946L210.575 136.852C208.532 135.323 208.276 132.52 209.809 130.481L268.298 56.3117C269.83 54.2727 272.64 54.0178 274.683 55.5471L315.549 87.6614L318.103 122.07Z" fill="white"/>
</g>
<path d="M243.523 143.988L241.48 142.458C240.969 141.949 240.969 141.439 241.48 140.929C241.991 140.419 242.501 140.419 243.012 140.674L245.056 142.204C245.566 142.458 245.566 143.223 245.311 143.733C244.8 144.243 244.034 144.243 243.523 143.988Z" fill="#E3EAF2"/>
<path d="M237.903 139.401L225.899 129.971C225.388 129.716 225.388 128.952 225.643 128.442C225.899 127.932 226.665 127.932 227.176 128.187L239.18 137.617C239.691 137.872 239.691 138.637 239.436 139.147C239.18 139.656 238.414 139.911 237.903 139.401Z" fill="#E3EAF2"/>
<path d="M298.946 94.0331L271.872 72.8784C271.361 72.3686 271.106 71.604 271.617 70.8394C272.127 70.3296 272.894 70.0747 273.66 70.5845L300.734 91.7392C301.244 92.2489 301.5 93.0136 300.989 93.7782C300.478 94.5428 299.712 94.5428 298.946 94.0331Z" fill="url(#paint4_linear_4943_24430)"/>
<path d="M277.235 87.4067L267.019 79.2507C266.508 78.741 266.252 77.9763 266.763 77.2117C267.274 76.4471 268.04 76.4471 268.807 76.9568L279.023 85.1128C279.534 85.6226 279.789 86.3872 279.278 87.1519C278.768 87.9165 277.746 87.9165 277.235 87.4067Z" fill="url(#paint5_linear_4943_24430)"/>
<path d="M315.549 87.6616L303.034 103.464C301.246 105.758 301.757 109.071 304.056 110.855L318.359 122.07" fill="#D8E2EE"/>
<path d="M300.735 125.638L286.687 114.679L272.128 103.209L258.592 92.5045C257.059 91.2301 254.76 91.485 253.739 93.2691L234.327 117.737C233.05 119.266 233.306 121.56 234.838 122.58L277.237 155.969C278.769 157.243 281.068 156.988 282.089 155.204L301.501 130.736C302.522 128.952 302.267 126.913 300.735 125.638ZM255.782 125.383L260.124 119.776L273.15 129.971L268.808 135.578L255.782 125.383ZM267.531 137.108L263.444 142.205L250.418 132.01L254.505 126.913L267.531 137.108ZM278.769 122.835L274.427 128.442L261.401 118.247L265.743 112.64L278.769 122.835ZM267.02 110.856L271.618 105.248L284.644 115.443L280.302 121.051L267.02 110.856ZM290.518 140.931L276.215 129.716L280.557 124.109L294.86 135.324L290.518 140.931ZM259.869 116.718L246.076 105.758L250.418 100.151L264.211 111.11L259.869 116.718ZM244.544 107.542L258.336 118.502L253.994 124.109L240.202 113.149L244.544 107.542ZM274.938 131.246L289.241 142.46L284.899 148.067L270.596 136.853L274.938 131.246ZM299.713 129.207L296.137 133.794L281.834 122.58L286.176 116.973L299.457 127.422C300.224 127.677 300.224 128.697 299.713 129.207ZM257.059 93.7789L269.83 103.974L265.488 109.581L251.695 98.6215L255.271 94.0337C255.527 93.524 256.548 93.524 257.059 93.7789ZM235.86 118.757L238.925 114.934L252.717 125.893L248.63 130.991L235.86 120.796C235.349 120.286 235.349 119.266 235.86 118.757ZM278.514 153.93L265.232 143.48L269.319 138.382L283.622 149.597L280.302 153.675C279.791 154.439 279.024 154.439 278.514 153.93Z" fill="#D8E2EE"/>
<g filter="url(#filter3_d_4943_24430)">
<path d="M244.287 64.9785L236.88 146.794C236.624 149.597 234.07 151.636 231.261 151.381L151.572 143.225C148.763 142.97 146.72 140.422 146.975 137.618L157.702 32.6093C157.958 29.8056 160.512 27.7666 163.321 28.0215L221.044 33.8837L244.287 64.9785Z" fill="white"/>
</g>
<path d="M221.298 34.1392L218.999 56.5682C218.744 59.6267 221.042 62.6852 224.363 62.9401L244.54 64.9791" fill="#D8E2EE"/>
<path d="M226.155 124.874L160.77 117.483C159.237 117.228 157.96 115.954 158.216 114.424L163.069 72.6249C163.324 71.0956 164.601 69.8212 166.134 70.0761L231.519 77.2126C233.051 77.4675 234.329 78.7419 234.073 80.2711L229.22 122.071C228.965 123.855 227.688 124.874 226.155 124.874Z" fill="#E6EDF5"/>
<path d="M196.783 114.602L166.644 111.034L183.501 95.7417L196.783 114.602Z" fill="#B6C2D2"/>
<path d="M221.812 117.738L178.136 112.64L202.911 90.7207L221.812 117.738Z" fill="white"/>
<path d="M181.205 89.446C184.449 89.446 187.079 86.8214 187.079 83.5838C187.079 80.3462 184.449 77.7217 181.205 77.7217C177.96 77.7217 175.33 80.3462 175.33 83.5838C175.33 86.8214 177.96 89.446 181.205 89.446Z" fill="url(#paint6_linear_4943_24430)"/>
<path d="M206.486 48.157L166.897 43.5692C166.386 43.5692 165.875 43.0594 166.13 42.5497V42.0399C166.13 41.5302 166.641 41.0204 167.152 41.2753L206.741 45.8631C207.252 45.8631 207.763 46.3728 207.507 46.8826V47.3923C207.507 47.9021 206.996 48.4118 206.486 48.157Z" fill="#CED7E2"/>
<path d="M206.233 55.5481L166.133 50.9603C165.622 50.9603 165.111 50.4506 165.367 49.9408V49.4311C165.367 48.9213 165.878 48.4116 166.388 48.6664L206.488 53.2542C206.999 53.2542 207.51 53.7639 207.254 54.2737V54.7834C207.254 55.2932 206.743 55.5481 206.233 55.5481Z" fill="#E6EDF5"/>
<path d="M207.505 132.776L157.7 127.169C156.934 127.169 156.423 126.404 156.679 125.64C156.679 124.875 157.445 124.365 158.211 124.62L207.761 130.227C208.527 130.227 209.038 130.992 208.783 131.757C208.783 132.521 208.272 133.031 207.505 132.776Z" fill="#E6EDF5"/>
<path d="M200.356 62.6843L165.364 58.6063C164.598 58.6063 164.087 57.8416 164.343 57.077C164.343 56.3124 165.109 55.8026 165.875 56.0575L200.867 60.1355C201.633 60.1355 202.144 60.9001 201.888 61.6648C201.633 62.1745 201.122 62.6843 200.356 62.6843Z" fill="#E6EDF5"/>
<path d="M225.899 142.46L156.683 134.304C155.916 134.304 155.406 133.539 155.661 132.775C155.661 132.01 156.427 131.5 157.193 131.755L226.41 139.656C227.176 139.656 227.687 140.421 227.432 141.186C227.432 141.95 226.665 142.46 225.899 142.46Z" fill="#E6EDF5"/>
<path d="M226.92 135.07L213.383 133.54C212.617 133.54 212.106 132.776 212.361 132.011C212.361 131.246 213.127 130.737 213.894 130.992L227.43 132.521C228.197 132.521 228.707 133.285 228.452 134.05C228.197 134.815 227.686 135.324 226.92 135.07Z" fill="url(#paint7_linear_4943_24430)"/>
<g filter="url(#filter4_d_4943_24430)">
<path d="M290.091 147.371L275.423 212.715C274.506 216.54 269.922 219.533 264.422 219.533H105.825C100.325 219.533 95.7411 216.706 94.8243 212.715L82.9067 159.176C81.99 155.185 86.3445 151.361 92.0741 151.361H181.457C184.207 151.361 186.499 150.031 187.415 148.202L189.936 142.549C190.853 140.72 193.145 139.39 195.895 139.39H281.152C286.653 139.556 291.007 143.214 290.091 147.371Z" fill="white"/>
</g>
<g filter="url(#filter5_d_4943_24430)">
<path d="M301.644 138.469L285.297 238.636C284.276 244.498 279.167 249.085 273.037 249.085H96.2924C90.1625 249.085 85.0543 244.753 84.0327 238.636L70.7513 156.566C69.7296 150.449 74.5824 144.586 80.9677 144.586H180.578C183.643 144.586 186.197 142.547 187.219 139.744L190.029 131.078C191.05 128.274 193.604 126.235 196.669 126.235H291.682C297.812 126.49 302.665 132.097 301.644 138.469Z" fill="white"/>
</g>
<path d="M154.27 17.1478C153.248 17.6576 152.226 17.1478 151.715 16.1283L147.373 5.42354C146.863 4.40404 147.373 3.38453 148.395 2.87478C149.417 2.36503 150.438 2.87478 150.949 3.89429L155.291 14.5991C155.802 15.8734 155.291 16.8929 154.27 17.1478Z" fill="url(#paint8_linear_4943_24430)"/>
<path d="M146.352 27.3437C145.841 27.8534 145.33 28.1083 144.564 27.8534L133.581 25.8144C132.56 25.5596 131.793 24.5401 132.049 23.5205C132.304 22.501 133.326 21.7364 134.347 21.9913L145.33 24.0303C146.352 24.2852 147.118 25.3047 146.863 26.3242C146.607 26.8339 146.607 27.0888 146.352 27.3437Z" fill="url(#paint9_linear_4943_24430)"/>
<path d="M168.829 15.8744C168.573 15.8744 168.318 15.6195 167.807 15.6195C167.041 14.8549 166.786 13.8354 167.552 12.8159L174.448 3.89527C175.214 3.13064 176.236 2.87576 177.257 3.64039C178.024 4.40502 178.279 5.42452 177.513 6.44402L170.617 15.3647C170.106 15.6195 169.34 15.8744 168.829 15.8744Z" fill="url(#paint10_linear_4943_24430)"/>
<path d="M149.416 183.328H94.2467C93.225 183.328 92.2034 182.563 92.2034 181.289C92.2034 180.014 92.9696 179.25 94.2467 179.25H149.671C150.693 179.25 151.714 180.014 151.714 181.289C151.714 182.563 150.693 183.328 149.416 183.328Z" fill="#D8E2EE"/>
<path d="M131.028 194.975H97.8245C96.8029 194.975 95.7812 194.211 95.7812 192.936C95.7812 191.662 96.5475 190.897 97.8245 190.897H131.028C132.05 190.897 133.071 191.662 133.071 192.936C133.071 194.211 132.05 194.975 131.028 194.975Z" fill="#D8E2EE"/>
<g filter="url(#filter6_d_4943_24430)">
<path d="M228.678 248.74C227.901 252.049 226.736 255.358 225.377 258.277C221.688 265.285 216.057 270.929 209.067 274.433C201.883 278.131 193.339 279.494 184.601 277.742C164.408 273.46 151.398 253.8 155.67 233.557C159.942 213.314 179.553 200.273 199.747 204.555C206.931 206.112 213.339 209.616 218.581 214.677C227.513 223.631 231.202 236.477 228.678 248.74Z" fill="url(#paint11_linear_4943_24430)"/>
</g>
<path d="M225.35 258.256C221.661 265.264 216.029 270.909 209.039 274.412L177.583 242.88L183.409 240.544L194.088 239.96H207.097L225.35 258.256Z" fill="url(#paint12_linear_4943_24430)"/>
<path d="M203.992 237.819H195.448V229.255C195.448 227.503 194.089 225.946 192.147 225.946C190.399 225.946 188.846 227.309 188.846 229.255V237.819H180.302C178.555 237.819 177.001 239.182 177.001 241.129C177.001 243.075 178.361 244.437 180.302 244.437H188.846V253.002C188.846 254.754 190.205 256.311 192.147 256.311C193.894 256.311 195.448 254.949 195.448 253.002V244.437H203.992C205.739 244.437 207.292 243.075 207.292 241.129C207.292 239.182 205.739 237.819 203.992 237.819Z" fill="url(#paint13_linear_4943_24430)"/>
<path d="M263.662 162.662L257.224 169.093C257.046 169.278 256.795 169.344 256.542 169.298C256.032 169.199 255.514 169.15 254.995 169.152C252.836 169.15 250.764 170.003 249.232 171.524V160.296C251.561 159.512 254.025 159.211 256.474 159.412C258.923 159.613 261.305 160.312 263.475 161.466C263.579 161.52 263.67 161.599 263.738 161.694C263.807 161.79 263.852 161.901 263.87 162.017C263.889 162.133 263.879 162.252 263.843 162.365C263.807 162.477 263.745 162.579 263.662 162.662Z" fill="#DEE6EF"/>
<path d="M272.869 179.553C271.904 187.664 265.409 194.207 257.303 195.214C248.061 196.363 239.985 190.496 237.674 182.226C237.224 180.641 236.997 179.002 237 177.355V153H238.005C242.71 153 246.55 156.688 246.788 161.334V161.34C246.795 161.485 246.801 161.637 246.801 161.789V177.353C246.799 178.962 247.273 180.535 248.163 181.875C250.582 185.525 255.839 187.127 260.795 183.513C263.534 180.244 263.725 176.597 262.405 173.838L269.524 166.714C272.101 170.237 273.442 174.738 272.869 179.553Z" fill="#DEE6EF"/>
<path d="M254.532 177.939C254.383 177.939 254.238 177.895 254.115 177.813C253.992 177.73 253.896 177.613 253.839 177.476C253.782 177.339 253.767 177.189 253.796 177.043C253.825 176.898 253.897 176.764 254.002 176.659L264.167 166.494C264.309 166.356 264.498 166.279 264.696 166.28C264.893 166.281 265.082 166.36 265.222 166.499C265.361 166.639 265.44 166.828 265.441 167.025C265.442 167.223 265.365 167.413 265.227 167.554L256.34 176.44H259.53C260.184 176.44 260.643 177.278 259.89 177.939H254.532Z" fill="#DEE6EF"/>
<defs>
<filter id="filter0_d_4943_24430" x="36.2591" y="59.2721" width="301.658" height="242.367" filterUnits="userSpaceOnUse" color-interpolation-filters="sRGB">
<feFlood flood-opacity="0" result="BackgroundImageFix"/>
<feColorMatrix in="SourceAlpha" type="matrix" values="0 0 0 0 0 0 0 0 0 0 0 0 0 0 0 0 0 0 127 0" result="hardAlpha"/>
<feOffset dy="25.9286"/>
<feGaussianBlur stdDeviation="25.9286"/>
<feColorMatrix type="matrix" values="0 0 0 0 0.397708 0 0 0 0 0.47749 0 0 0 0 0.575 0 0 0 0.18 0"/>
<feBlend mode="normal" in2="BackgroundImageFix" result="effect1_dropShadow_4943_24430"/>
<feBlend mode="normal" in="SourceGraphic" in2="effect1_dropShadow_4943_24430" result="shape"/>
</filter>
<filter id="filter1_d_4943_24430" x="0.142864" y="40.5812" width="230.721" height="229.217" filterUnits="userSpaceOnUse" color-interpolation-filters="sRGB">
<feFlood flood-opacity="0" result="BackgroundImageFix"/>
<feColorMatrix in="SourceAlpha" type="matrix" values="0 0 0 0 0 0 0 0 0 0 0 0 0 0 0 0 0 0 127 0" result="hardAlpha"/>
<feOffset dy="25.9286"/>
<feGaussianBlur stdDeviation="25.9286"/>
<feColorMatrix type="matrix" values="0 0 0 0 0.397708 0 0 0 0 0.47749 0 0 0 0 0.575 0 0 0 0.18 0"/>
<feBlend mode="normal" in2="BackgroundImageFix" result="effect1_dropShadow_4943_24430"/>
<feBlend mode="normal" in="SourceGraphic" in2="effect1_dropShadow_4943_24430" result="shape"/>
</filter>
<filter id="filter2_d_4943_24430" x="156.966" y="28.6354" width="212.994" height="231.08" filterUnits="userSpaceOnUse" color-interpolation-filters="sRGB">
<feFlood flood-opacity="0" result="BackgroundImageFix"/>
<feColorMatrix in="SourceAlpha" type="matrix" values="0 0 0 0 0 0 0 0 0 0 0 0 0 0 0 0 0 0 127 0" result="hardAlpha"/>
<feOffset dy="25.9286"/>
<feGaussianBlur stdDeviation="25.9286"/>
<feColorMatrix type="matrix" values="0 0 0 0 0.397708 0 0 0 0 0.47749 0 0 0 0 0.575 0 0 0 0.18 0"/>
<feBlend mode="normal" in2="BackgroundImageFix" result="effect1_dropShadow_4943_24430"/>
<feBlend mode="normal" in="SourceGraphic" in2="effect1_dropShadow_4943_24430" result="shape"/>
</filter>
<filter id="filter3_d_4943_24430" x="95.0962" y="2.07143" width="201.048" height="227.117" filterUnits="userSpaceOnUse" color-interpolation-filters="sRGB">
<feFlood flood-opacity="0" result="BackgroundImageFix"/>
<feColorMatrix in="SourceAlpha" type="matrix" values="0 0 0 0 0 0 0 0 0 0 0 0 0 0 0 0 0 0 127 0" result="hardAlpha"/>
<feOffset dy="25.9286"/>
<feGaussianBlur stdDeviation="25.9286"/>
<feColorMatrix type="matrix" values="0 0 0 0 0.397708 0 0 0 0 0.47749 0 0 0 0 0.575 0 0 0 0.18 0"/>
<feBlend mode="normal" in2="BackgroundImageFix" result="effect1_dropShadow_4943_24430"/>
<feBlend mode="normal" in="SourceGraphic" in2="effect1_dropShadow_4943_24430" result="shape"/>
</filter>
<filter id="filter4_d_4943_24430" x="30.9273" y="47.4611" width="311.143" height="183.857" filterUnits="userSpaceOnUse" color-interpolation-filters="sRGB">
<feFlood flood-opacity="0" result="BackgroundImageFix"/>
<feColorMatrix in="SourceAlpha" type="matrix" values="0 0 0 0 0 0 0 0 0 0 0 0 0 0 0 0 0 0 127 0" result="hardAlpha"/>
<feOffset dy="-40.0714"/>
<feGaussianBlur stdDeviation="25.9286"/>
<feColorMatrix type="matrix" values="0 0 0 0 0.397708 0 0 0 0 0.47749 0 0 0 0 0.575 0 0 0 0.18 0"/>
<feBlend mode="normal" in2="BackgroundImageFix" result="effect1_dropShadow_4943_24430"/>
<feBlend mode="normal" in="SourceGraphic" in2="effect1_dropShadow_4943_24430" result="shape"/>
</filter>
<filter id="filter5_d_4943_24430" x="18.7579" y="100.307" width="334.879" height="226.564" filterUnits="userSpaceOnUse" color-interpolation-filters="sRGB">
<feFlood flood-opacity="0" result="BackgroundImageFix"/>
<feColorMatrix in="SourceAlpha" type="matrix" values="0 0 0 0 0 0 0 0 0 0 0 0 0 0 0 0 0 0 127 0" result="hardAlpha"/>
<feOffset dy="25.9286"/>
<feGaussianBlur stdDeviation="25.9286"/>
<feColorMatrix type="matrix" values="0 0 0 0 0.397708 0 0 0 0 0.47749 0 0 0 0 0.575 0 0 0 0.18 0"/>
<feBlend mode="normal" in2="BackgroundImageFix" result="effect1_dropShadow_4943_24430"/>
<feBlend mode="normal" in="SourceGraphic" in2="effect1_dropShadow_4943_24430" result="shape"/>
</filter>
<filter id="filter6_d_4943_24430" x="139.625" y="198.029" width="105.064" height="105.224" filterUnits="userSpaceOnUse" color-interpolation-filters="sRGB">
<feFlood flood-opacity="0" result="BackgroundImageFix"/>
<feColorMatrix in="SourceAlpha" type="matrix" values="0 0 0 0 0 0 0 0 0 0 0 0 0 0 0 0 0 0 127 0" result="hardAlpha"/>
<feOffset dy="9.52061"/>
<feGaussianBlur stdDeviation="7.61649"/>
<feColorMatrix type="matrix" values="0 0 0 0 0.1125 0 0 0 0 0.295916 0 0 0 0 1 0 0 0 0.22 0"/>
<feBlend mode="normal" in2="BackgroundImageFix" result="effect1_dropShadow_4943_24430"/>
<feBlend mode="normal" in="SourceGraphic" in2="effect1_dropShadow_4943_24430" result="shape"/>
</filter>
<linearGradient id="paint0_linear_4943_24430" x1="301.491" y1="17.97" x2="315.567" y2="34.3595" gradientUnits="userSpaceOnUse">
<stop stop-color="#00D27B"/>
<stop offset="1" stop-color="#02C06D"/>
</linearGradient>
<linearGradient id="paint1_linear_4943_24430" x1="60.2587" y1="51.6982" x2="36.7036" y2="62.953" gradientUnits="userSpaceOnUse">
<stop stop-color="#1970E2"/>
<stop offset="0.0001" stop-color="#1970E2"/>
<stop offset="1" stop-color="#86BAFF"/>
</linearGradient>
<linearGradient id="paint2_linear_4943_24430" x1="46.8111" y1="248.532" x2="56.9088" y2="249.758" gradientUnits="userSpaceOnUse">
<stop stop-color="#27BCFE"/>
<stop offset="1" stop-color="#0083CC"/>
</linearGradient>
<linearGradient id="paint3_linear_4943_24430" x1="308.469" y1="49.3743" x2="318.2" y2="49.3743" gradientUnits="userSpaceOnUse">
<stop stop-color="#E63756"/>
<stop offset="1" stop-color="#FC97A9"/>
</linearGradient>
<linearGradient id="paint4_linear_4943_24430" x1="337.565" y1="78.5832" x2="287.381" y2="108.322" gradientUnits="userSpaceOnUse">
<stop stop-color="#1970E2"/>
<stop offset="0.0001" stop-color="#1970E2"/>
<stop offset="1" stop-color="#86BAFF"/>
</linearGradient>
<linearGradient id="paint5_linear_4943_24430" x1="295.411" y1="80.4373" x2="272.836" y2="93.0447" gradientUnits="userSpaceOnUse">
<stop stop-color="#1970E2"/>
<stop offset="0.0001" stop-color="#1970E2"/>
<stop offset="1" stop-color="#86BAFF"/>
</linearGradient>
<linearGradient id="paint6_linear_4943_24430" x1="173.13" y1="83.552" x2="187.118" y2="83.552" gradientUnits="userSpaceOnUse">
<stop stop-color="#E63756"/>
<stop offset="1" stop-color="#FC97A9"/>
</linearGradient>
<linearGradient id="paint7_linear_4943_24430" x1="212.19" y1="132.188" x2="228.278" y2="134.043" gradientUnits="userSpaceOnUse">
<stop stop-color="#83A6FF"/>
<stop offset="1" stop-color="#5A78FF"/>
</linearGradient>
<linearGradient id="paint8_linear_4943_24430" x1="145.615" y1="9.97154" x2="155.519" y2="9.97154" gradientUnits="userSpaceOnUse">
<stop stop-color="#E63756"/>
<stop offset="1" stop-color="#FC97A9"/>
</linearGradient>
<linearGradient id="paint9_linear_4943_24430" x1="129.206" y1="24.9314" x2="146.962" y2="24.9314" gradientUnits="userSpaceOnUse">
<stop stop-color="#E63756"/>
<stop offset="1" stop-color="#FC97A9"/>
</linearGradient>
<linearGradient id="paint10_linear_4943_24430" x1="165.05" y1="9.49216" x2="178.012" y2="9.49216" gradientUnits="userSpaceOnUse">
<stop stop-color="#E63756"/>
<stop offset="1" stop-color="#FC97A9"/>
</linearGradient>
<linearGradient id="paint11_linear_4943_24430" x1="319.928" y1="229.435" x2="182.117" y2="295.003" gradientUnits="userSpaceOnUse">
<stop stop-color="#F68F57"/>
<stop offset="0.0001" stop-color="#1970E2"/>
<stop offset="1" stop-color="#86BAFF"/>
</linearGradient>
<linearGradient id="paint12_linear_4943_24430" x1="185.357" y1="233.241" x2="218.652" y2="252.168" gradientUnits="userSpaceOnUse">
<stop stop-color="#1970E2"/>
<stop offset="0.0001" stop-color="#4392FC"/>
<stop offset="1" stop-color="#4293FF" stop-opacity="0"/>
</linearGradient>
<linearGradient id="paint13_linear_4943_24430" x1="201.543" y1="250.54" x2="185.53" y2="234.566" gradientUnits="userSpaceOnUse">
<stop offset="0.0113208" stop-color="#C2DEFF"/>
<stop offset="1" stop-color="white"/>
</linearGradient>
</defs>
</svg>
