<?xml version="1.0" encoding="iso-8859-1"?>
<!-- Generator: Adobe Illustrator 18.0.0, SVG Export Plug-In . SVG Version: 6.00 Build 0)  -->
<!DOCTYPE svg PUBLIC "-//W3C//DTD SVG 1.1//EN" "http://www.w3.org/Graphics/SVG/1.1/DTD/svg11.dtd">
<svg id="Capa_1" style="enable-background:new 0 0 187.322 187.322;" version="1.1" viewBox="0 0 187.322 187.322" x="0px"
     xml:space="preserve"
     xmlns="http://www.w3.org/2000/svg" xmlns:xlink="http://www.w3.org/1999/xlink" y="0px">
<g>
	<polygon points="101.677,40.71 93.661,0 85.645,40.71 93.661,40.71 	" style="fill:#F7A663;"/>
  <polygon points="67.185,47.804 74.127,43.796 46.83,12.548 60.243,51.812 	" style="fill:#FFC80A;"/>
  <polygon points="47.804,67.186 51.811,60.243 12.548,46.83 43.795,74.128 	" style="fill:#F7A663;"/>
  <polygon points="40.709,93.66 40.71,85.646 0,93.66 40.709,101.677 	" style="fill:#FFC80A;"/>
  <polygon points="47.803,120.137 43.796,113.194 12.548,140.491 51.81,127.079 	" style="fill:#F7A663;"/>
  <polygon points="60.244,135.511 46.83,174.774 74.127,143.527 67.184,139.519 	" style="fill:#FFC80A;"/>
  <polygon points="85.645,146.611 93.661,187.322 101.677,146.613 93.661,146.613 	" style="fill:#F7A663;"/>
  <polygon points="120.137,139.519 113.195,143.525 140.491,174.774 127.079,135.511 	" style="fill:#FFC80A;"/>
  <polygon points="139.519,120.137 135.51,127.077 174.773,140.491 143.525,113.194 	" style="fill:#F7A663;"/>
  <polygon points="187.322,93.66 146.612,85.645 146.613,93.66 146.612,101.676 	" style="fill:#FFC80A;"/>
  <polygon points="139.518,67.184 143.525,74.126 174.773,46.83 135.509,60.243 	" style="fill:#F7A663;"/>
  <polygon points="127.078,51.812 140.491,12.548 113.193,43.796 120.136,47.804 	" style="fill:#FFC80A;"/>
  <path d="M93.661,45.265v96.793c26.729,0,48.397-21.668,48.397-48.397S120.39,45.265,93.661,45.265z"
        style="fill:#FDD633;"/>
  <path d="M45.265,93.661c0,26.729,21.668,48.397,48.396,48.397V45.265
		C66.933,45.265,45.265,66.933,45.265,93.661z" style="fill:#F4CA19;"/>
</g>
  <g>
</g>
  <g>
</g>
  <g>
</g>
  <g>
</g>
  <g>
</g>
  <g>
</g>
  <g>
</g>
  <g>
</g>
  <g>
</g>
  <g>
</g>
  <g>
</g>
  <g>
</g>
  <g>
</g>
  <g>
</g>
  <g>
</g>
</svg>
