<svg xmlns="http://www.w3.org/2000/svg" viewBox="0 0 2048 2048">
  <defs>
    <style>.cls-1 {
      fill: #ffeb00;
    }

    .cls-2 {
      fill: #1a1a1a;
    }</style>
  </defs>
  <g id="Edit">
    <rect class="cls-1" width="2048" height="2048"/>
    <path class="cls-2"
          d="M1319.83,601.71,1121.71,799.62c-5.49,5.7-13.22,7.73-21,6.31a245.3,245.3,0,0,0-47.6-4.48,251.2,251.2,0,0,0-177.37,73V528.89a555.54,555.54,0,0,1,438.34,36A23.15,23.15,0,0,1,1319.83,601.71Z"/>
    <path class="cls-2"
          d="M1603.2,1121.53c-29.71,249.63-229.59,451-479.06,482-284.44,35.35-533-145.21-604.11-399.74a544.53,544.53,0,0,1-20.75-149.91V304.33H530.2c144.82,0,263,113.5,270.33,256.49V561c.2,4.47.4,9.15.4,13.83v479A250.86,250.86,0,0,0,842.83,1193c74.45,112.34,236.25,161.65,388.78,50.41,84.29-100.6,90.17-212.85,49.56-297.75L1500.24,726.4C1579.57,834.82,1620.83,973.36,1603.2,1121.53Z"/>
    <path class="cls-2"
          d="M1038.84,1071.86a23.06,23.06,0,0,1-16.31-39.37L1335.4,719.62A23.06,23.06,0,0,1,1368,752.24l-273.49,273.49h98.17c20.12,0,34.24,25.79,11.08,46.13Z"/>
  </g>
</svg>
